<?xml version="1.0" encoding="UTF-8"?>
<svg xmlns="http://www.w3.org/2000/svg" xmlns:xlink="http://www.w3.org/1999/xlink" width="595.275591pt" height="841.889764pt" viewBox="0 0 595.275591 841.889764" version="1.2">
<g id="surface123961">
<path style="fill-rule:evenodd;comp-op:src;clip-to-self:true;fill:rgb(100%,100%,100%);fill-opacity:1;stroke-width:1.000232;stroke-linecap:round;stroke-linejoin:round;stroke:rgb(100%,100%,100%);stroke-opacity:1;comp-op:src;clip-to-self:true;stroke-miterlimit:10;" d="M -0.00228634 0 L -0.00228634 2479.996745 L 3508.005526 2479.996745 L 3508.005526 0 Z M -0.00228634 0 " transform="matrix(0,-0.24,0.24,0,0,819.569764)"/>
<path style="fill:none;stroke-width:2.999516;stroke-linecap:round;stroke-linejoin:round;stroke:rgb(0%,0%,0%);stroke-opacity:1;comp-op:src;clip-to-self:true;stroke-miterlimit:10;" d="M 974.997714 1161.995443 C 974.997714 1145.426432 961.569979 1131.998698 945.000969 1131.998698 C 928.431958 1131.998698 915.004224 1145.426432 915.004224 1161.995443 " transform="matrix(0,-0.24,0.24,0,0,819.569764)"/>
<path style="fill:none;stroke-width:2.999516;stroke-linecap:round;stroke-linejoin:round;stroke:rgb(0%,0%,0%);stroke-opacity:1;comp-op:src;clip-to-self:true;stroke-miterlimit:10;" d="M 915.004224 1161.995443 C 915.004224 1178.564453 928.431958 1191.992188 945.000969 1191.992188 C 961.569979 1191.992188 974.997714 1178.564453 974.997714 1161.995443 " transform="matrix(0,-0.24,0.24,0,0,819.569764)"/>
<path style="fill:none;stroke-width:3.749395;stroke-linecap:round;stroke-linejoin:round;stroke:rgb(0%,0%,0%);stroke-opacity:1;comp-op:src;clip-to-self:true;stroke-miterlimit:10;" d="M 935.007479 1145.996094 L 945.000969 1175.992839 " transform="matrix(0,-0.24,0.24,0,0,819.569764)"/>
<path style="fill:none;stroke-width:3.749395;stroke-linecap:round;stroke-linejoin:round;stroke:rgb(0%,0%,0%);stroke-opacity:1;comp-op:src;clip-to-self:true;stroke-miterlimit:10;" d="M 945.000969 1175.992839 L 954.994458 1145.996094 " transform="matrix(0,-0.24,0.24,0,0,819.569764)"/>
<path style="fill:none;stroke-width:1.79971;stroke-linecap:round;stroke-linejoin:round;stroke:rgb(0%,0%,0%);stroke-opacity:1;comp-op:src;clip-to-self:true;stroke-miterlimit:10;" d="M 945.000969 1191.992188 L 945.000969 1222.005208 " transform="matrix(0,-0.24,0.24,0,0,819.569764)"/>
<path style="fill:none;stroke-width:1.79971;stroke-linecap:round;stroke-linejoin:round;stroke:rgb(0%,0%,0%);stroke-opacity:1;comp-op:src;clip-to-self:true;stroke-miterlimit:10;" d="M 945.000969 1131.998698 L 945.000969 1102.001953 " transform="matrix(0,-0.24,0.24,0,0,819.569764)"/>
<path style="fill:none;stroke-width:1.79971;stroke-linecap:round;stroke-linejoin:round;stroke:rgb(0%,0%,0%);stroke-opacity:1;comp-op:src;clip-to-self:true;stroke-miterlimit:10;" d="M 961.993156 1109.000651 L 967.006177 1124.007161 " transform="matrix(0,-0.24,0.24,0,0,819.569764)"/>
<path style="fill:none;stroke-width:1.79971;stroke-linecap:round;stroke-linejoin:round;stroke:rgb(0%,0%,0%);stroke-opacity:1;comp-op:src;clip-to-self:true;stroke-miterlimit:10;" d="M 967.006177 1124.007161 L 972.002922 1109.000651 " transform="matrix(0,-0.24,0.24,0,0,819.569764)"/>
<path style="fill:none;stroke-width:1.79971;stroke-linecap:round;stroke-linejoin:round;stroke:rgb(0%,0%,0%);stroke-opacity:1;comp-op:src;clip-to-self:true;stroke-miterlimit:10;" d="M 847.002922 1154.996745 L 847.002922 1125 " transform="matrix(0,-0.24,0.24,0,0,819.569764)"/>
<path style="fill:none;stroke-width:2.399613;stroke-linecap:round;stroke-linejoin:round;stroke:rgb(0%,0%,0%);stroke-opacity:1;comp-op:src;clip-to-self:true;stroke-miterlimit:10;" d="M 861.993156 1145.996094 L 861.993156 1140.00651 " transform="matrix(0,-0.24,0.24,0,0,819.569764)"/>
<path style="fill:none;stroke-width:2.399613;stroke-linecap:round;stroke-linejoin:round;stroke:rgb(0%,0%,0%);stroke-opacity:1;comp-op:src;clip-to-self:true;stroke-miterlimit:10;" d="M 861.993156 1140.00651 L 831.996412 1140.00651 " transform="matrix(0,-0.24,0.24,0,0,819.569764)"/>
<path style="fill:none;stroke-width:2.399613;stroke-linecap:round;stroke-linejoin:round;stroke:rgb(0%,0%,0%);stroke-opacity:1;comp-op:src;clip-to-self:true;stroke-miterlimit:10;" d="M 831.996412 1140.00651 L 831.996412 1134.000651 " transform="matrix(0,-0.24,0.24,0,0,819.569764)"/>
<path style="fill:none;stroke-width:2.399613;stroke-linecap:round;stroke-linejoin:round;stroke:rgb(0%,0%,0%);stroke-opacity:1;comp-op:src;clip-to-self:true;stroke-miterlimit:10;" d="M 861.993156 1170.003255 L 831.996412 1170.003255 " transform="matrix(0,-0.24,0.24,0,0,819.569764)"/>
<path style="fill:none;stroke-width:2.399613;stroke-linecap:round;stroke-linejoin:round;stroke:rgb(0%,0%,0%);stroke-opacity:1;comp-op:src;clip-to-self:true;stroke-miterlimit:10;" d="M 831.996412 1170.003255 L 847.002922 1140.00651 " transform="matrix(0,-0.24,0.24,0,0,819.569764)"/>
<path style="fill:none;stroke-width:2.399613;stroke-linecap:round;stroke-linejoin:round;stroke:rgb(0%,0%,0%);stroke-opacity:1;comp-op:src;clip-to-self:true;stroke-miterlimit:10;" d="M 847.002922 1140.00651 L 861.993156 1170.003255 " transform="matrix(0,-0.24,0.24,0,0,819.569764)"/>
<path style="fill:none;stroke-width:1.79971;stroke-linecap:round;stroke-linejoin:round;stroke:rgb(0%,0%,0%);stroke-opacity:1;comp-op:src;clip-to-self:true;stroke-miterlimit:10;" d="M 847.002922 1125 L 847.002922 1095.003255 " transform="matrix(0,-0.24,0.24,0,0,819.569764)"/>
<path style="fill:none;stroke-width:1.79971;stroke-linecap:round;stroke-linejoin:round;stroke:rgb(0%,0%,0%);stroke-opacity:1;comp-op:src;clip-to-self:true;stroke-miterlimit:10;" d="M 847.002922 1154.996745 L 847.002922 1184.99349 " transform="matrix(0,-0.24,0.24,0,0,819.569764)"/>
<path style="fill:none;stroke-width:1.79971;stroke-linecap:round;stroke-linejoin:round;stroke:rgb(0%,0%,0%);stroke-opacity:1;comp-op:src;clip-to-self:true;stroke-miterlimit:10;" d="M 858.005526 1195.996094 L 858.005526 1181.005859 " transform="matrix(0,-0.24,0.24,0,0,819.569764)"/>
<path style="fill:none;stroke-width:1.79971;stroke-linecap:round;stroke-linejoin:round;stroke:rgb(0%,0%,0%);stroke-opacity:1;comp-op:src;clip-to-self:true;stroke-miterlimit:10;" d="M 858.005526 1181.005859 L 861.993156 1181.005859 " transform="matrix(0,-0.24,0.24,0,0,819.569764)"/>
<path style="fill:none;stroke-width:1.79971;stroke-linecap:round;stroke-linejoin:round;stroke:rgb(0%,0%,0%);stroke-opacity:1;comp-op:src;clip-to-self:true;stroke-miterlimit:10;" d="M 861.993156 1181.005859 L 863.995109 1181.998698 " transform="matrix(0,-0.24,0.24,0,0,819.569764)"/>
<path style="fill:none;stroke-width:1.79971;stroke-linecap:round;stroke-linejoin:round;stroke:rgb(0%,0%,0%);stroke-opacity:1;comp-op:src;clip-to-self:true;stroke-miterlimit:10;" d="M 863.995109 1181.998698 L 865.997063 1183.007812 " transform="matrix(0,-0.24,0.24,0,0,819.569764)"/>
<path style="fill:none;stroke-width:1.79971;stroke-linecap:round;stroke-linejoin:round;stroke:rgb(0%,0%,0%);stroke-opacity:1;comp-op:src;clip-to-self:true;stroke-miterlimit:10;" d="M 865.997063 1183.007812 L 865.997063 1184.99349 " transform="matrix(0,-0.24,0.24,0,0,819.569764)"/>
<path style="fill:none;stroke-width:1.79971;stroke-linecap:round;stroke-linejoin:round;stroke:rgb(0%,0%,0%);stroke-opacity:1;comp-op:src;clip-to-self:true;stroke-miterlimit:10;" d="M 865.997063 1184.99349 L 867.006177 1188.004557 " transform="matrix(0,-0.24,0.24,0,0,819.569764)"/>
<path style="fill:none;stroke-width:1.79971;stroke-linecap:round;stroke-linejoin:round;stroke:rgb(0%,0%,0%);stroke-opacity:1;comp-op:src;clip-to-self:true;stroke-miterlimit:10;" d="M 867.006177 1188.004557 L 867.006177 1190.00651 " transform="matrix(0,-0.24,0.24,0,0,819.569764)"/>
<path style="fill:none;stroke-width:1.79971;stroke-linecap:round;stroke-linejoin:round;stroke:rgb(0%,0%,0%);stroke-opacity:1;comp-op:src;clip-to-self:true;stroke-miterlimit:10;" d="M 867.006177 1190.00651 L 865.997063 1193.001302 " transform="matrix(0,-0.24,0.24,0,0,819.569764)"/>
<path style="fill:none;stroke-width:1.79971;stroke-linecap:round;stroke-linejoin:round;stroke:rgb(0%,0%,0%);stroke-opacity:1;comp-op:src;clip-to-self:true;stroke-miterlimit:10;" d="M 865.997063 1193.001302 L 865.997063 1193.994141 " transform="matrix(0,-0.24,0.24,0,0,819.569764)"/>
<path style="fill:none;stroke-width:1.79971;stroke-linecap:round;stroke-linejoin:round;stroke:rgb(0%,0%,0%);stroke-opacity:1;comp-op:src;clip-to-self:true;stroke-miterlimit:10;" d="M 865.997063 1193.994141 L 863.995109 1195.003255 " transform="matrix(0,-0.24,0.24,0,0,819.569764)"/>
<path style="fill:none;stroke-width:1.79971;stroke-linecap:round;stroke-linejoin:round;stroke:rgb(0%,0%,0%);stroke-opacity:1;comp-op:src;clip-to-self:true;stroke-miterlimit:10;" d="M 863.995109 1195.003255 L 861.993156 1195.996094 " transform="matrix(0,-0.24,0.24,0,0,819.569764)"/>
<path style="fill:none;stroke-width:1.79971;stroke-linecap:round;stroke-linejoin:round;stroke:rgb(0%,0%,0%);stroke-opacity:1;comp-op:src;clip-to-self:true;stroke-miterlimit:10;" d="M 861.993156 1195.996094 L 858.005526 1195.996094 " transform="matrix(0,-0.24,0.24,0,0,819.569764)"/>
<path style="fill:none;stroke-width:1.79971;stroke-linecap:round;stroke-linejoin:round;stroke:rgb(0%,0%,0%);stroke-opacity:1;comp-op:src;clip-to-self:true;stroke-miterlimit:10;" d="M 847.002922 1236.995443 L 945.000969 1236.995443 " transform="matrix(0,-0.24,0.24,0,0,819.569764)"/>
<path style="fill:none;stroke-width:1.79971;stroke-linecap:round;stroke-linejoin:round;stroke:rgb(0%,0%,0%);stroke-opacity:1;comp-op:src;clip-to-self:true;stroke-miterlimit:10;" d="M 847.002922 1072.005208 L 847.002922 1095.003255 " transform="matrix(0,-0.24,0.24,0,0,819.569764)"/>
<path style="fill:none;stroke-width:1.79971;stroke-linecap:round;stroke-linejoin:round;stroke:rgb(0%,0%,0%);stroke-opacity:1;comp-op:src;clip-to-self:true;stroke-miterlimit:10;" d="M 945.000969 1236.995443 L 945.000969 1222.005208 " transform="matrix(0,-0.24,0.24,0,0,819.569764)"/>
<path style="fill:none;stroke-width:1.79971;stroke-linecap:round;stroke-linejoin:round;stroke:rgb(0%,0%,0%);stroke-opacity:1;comp-op:src;clip-to-self:true;stroke-miterlimit:10;" d="M 847.002922 1072.005208 L 945.000969 1072.005208 " transform="matrix(0,-0.24,0.24,0,0,819.569764)"/>
<path style="fill:none;stroke-width:1.79971;stroke-linecap:round;stroke-linejoin:round;stroke:rgb(0%,0%,0%);stroke-opacity:1;comp-op:src;clip-to-self:true;stroke-miterlimit:10;" d="M 945.000969 1072.005208 L 945.000969 1102.001953 " transform="matrix(0,-0.24,0.24,0,0,819.569764)"/>
<path style="fill:none;stroke-width:1.79971;stroke-linecap:round;stroke-linejoin:round;stroke:rgb(0%,0%,0%);stroke-opacity:1;comp-op:src;clip-to-self:true;stroke-miterlimit:10;" d="M 847.002922 1184.99349 L 847.002922 1236.995443 " transform="matrix(0,-0.24,0.24,0,0,819.569764)"/>
</g>
</svg>
